# xmcd
#
# Track frame offsets:
#	150
#	13158
#	25149
#	38339
#	49577
#	63830
#	76088
#	87634
#	99061
#	110656
#	126169
#	139565
#	151261
#	163197
#	175323
#	187715
#	200772
#	213302
#	224730
#	235746
#	250193
#	261855
#	275280
#	289358
#	302704
#
# Disc length: 4194 seconds
#
# Revision: 1
# Processed by: cddbd v1.5.2PL0 Copyright (c) Steve Scherf et al.
# Submitted via: audiograbber 1.83.01
#
DISCID=5a106019
DTITLE=João Neto and Frederico - Em Sintonia
DYEAR=2017
DGENRE=Sertanejas
TTITLE0=Cê Acredita
TTITLE1=Jaleco Branco
TTITLE2=Saudade Do Caramba
TTITLE3=Vida Bagunçada
TTITLE4=Assim Como Você
TTITLE5=Rapariga Não (Part. Esp. Simone E Simaria)
TTITLE6=Branca De Neve
TTITLE7=Muito Prazer
TTITLE8=Tô Lascado
TTITLE9=Prisioneiros (Part. Esp. Jorge E Mateus)
TTITLE10=Gastando Petróleo
TTITLE11=Continua
TTITLE12=Distribuidora De Bebida
TTITLE13=Procura-se Um Amor
TTITLE14=Quebra A Cara E Volta Pra Mim
TTITLE15=Larguei De Novo (Part. Esp. Gusttavo Lima)
TTITLE16=Hoje É Dia De Maldade
TTITLE17=Eu Tô Aqui Largado
TTITLE18=Agora É Oficial
TTITLE19=Entendedores Entenderão
TTITLE20=Mil Cópias (Part. Esp. Diego and Arnaldo)
TTITLE21=Esse Sou Eu Na Vida
TTITLE22=Perguntando Por Perguntar
TTITLE23=Dono Do Motel (Part. Esp. Diego Ferrari)
TTITLE24=Saideira Não
EXTD=
EXTT0=
EXTT1=
EXTT2=
EXTT3=
EXTT4=
EXTT5=
EXTT6=
EXTT7=
EXTT8=
EXTT9=
EXTT10=
EXTT11=
EXTT12=
EXTT13=
EXTT14=
EXTT15=
EXTT16=
EXTT17=
EXTT18=
EXTT19=
EXTT20=
EXTT21=
EXTT22=
EXTT23=
EXTT24=
PLAYORDER=
